<?xml version="1.0" encoding="iso-8859-1"?>
<!-- Generator: Adobe Illustrator 19.0.0, SVG Export Plug-In . SVG Version: 6.00 Build 0)  -->
<svg version="1.1" id="Layer_1" xmlns="http://www.w3.org/2000/svg" xmlns:xlink="http://www.w3.org/1999/xlink" x="0px" y="0px"
	 viewBox="0 0 512 512" style="enable-background:new 0 0 512 512;" xml:space="preserve">
<circle style="fill:#FFE670;" cx="255.996" cy="255.996" r="255.996"/>
<path style="fill:#FFCF00;" d="M512,255.999c0-14.322-1.195-28.363-3.456-42.045l-71.51-71.51
	c-3.508-5.233-9.472-8.697-16.209-8.697H91.175c-10.728,0-19.505,8.777-19.505,19.505v205.494c0,6.737,3.464,12.702,8.697,16.209
	l133.587,133.587c13.682,2.261,27.722,3.457,42.044,3.457C397.385,512,512,397.385,512,255.999z"/>
<path style="fill:#FF4F19;" d="M420.825,378.252H91.175c-10.728,0-19.505-8.777-19.505-19.505V153.253
	c0-10.728,8.777-19.505,19.505-19.505h329.649c10.728,0,19.505,8.777,19.505,19.505v205.494
	C440.329,369.474,431.552,378.252,420.825,378.252z"/>
<path style="fill:#ED2400;" d="M420.825,133.748H256v244.503h164.825c10.728,0,19.505-8.777,19.505-19.505V153.253
	C440.329,142.526,431.552,133.748,420.825,133.748z"/>
<rect x="92.284" y="154.601" style="fill:#00C379;" width="327.425" height="202.801"/>
<rect x="255.996" y="154.601" style="fill:#008C49;" width="163.712" height="202.801"/>
<path style="fill:#3C3B41;" d="M197.486,222.335c0-17.485-14.174-31.659-31.659-31.659s-31.659,14.174-31.659,31.659
	c0,13.254,8.148,24.6,19.705,29.317l-12.74,69.671h49.386l-12.739-69.671C189.338,246.935,197.486,235.59,197.486,222.335z"/>
<path style="fill:#171719;" d="M177.781,251.653c11.557-4.718,19.705-16.063,19.705-29.317c0-17.485-14.174-31.659-31.659-31.659
	v130.646h24.693L177.781,251.653z"/>
<path style="fill:#FFFFFF;" d="M268.654,221.031h-21.835c-4.789,0-8.707-3.918-8.707-8.707V190.49c0-4.789,3.918-8.707,8.707-8.707
	h21.835c4.789,0,8.707,3.918,8.707,8.707v21.835C277.361,217.113,273.443,221.031,268.654,221.031z"/>
<g>
	<path style="fill:#D8D8DA;" d="M319.099,221.031h-21.835c-4.789,0-8.707-3.918-8.707-8.707V190.49c0-4.789,3.918-8.707,8.707-8.707
		h21.835c4.789,0,8.707,3.918,8.707,8.707v21.835C327.806,217.113,323.888,221.031,319.099,221.031z"/>
	<path style="fill:#D8D8DA;" d="M369.544,221.031h-21.835c-4.789,0-8.707-3.918-8.707-8.707V190.49c0-4.789,3.918-8.707,8.707-8.707
		h21.835c4.789,0,8.707,3.918,8.707,8.707v21.835C378.252,217.113,374.334,221.031,369.544,221.031z"/>
</g>
<path style="fill:#FFFFFF;" d="M268.654,275.624h-21.835c-4.789,0-8.707-3.918-8.707-8.707v-21.835c0-4.789,3.918-8.707,8.707-8.707
	h21.835c4.789,0,8.707,3.918,8.707,8.707v21.835C277.361,271.706,273.443,275.624,268.654,275.624z"/>
<g>
	<path style="fill:#D8D8DA;" d="M319.099,275.624h-21.835c-4.789,0-8.707-3.918-8.707-8.707v-21.835
		c0-4.789,3.918-8.707,8.707-8.707h21.835c4.789,0,8.707,3.918,8.707,8.707v21.835C327.806,271.706,323.888,275.624,319.099,275.624
		z"/>
	<path style="fill:#D8D8DA;" d="M369.544,275.624h-21.835c-4.789,0-8.707-3.918-8.707-8.707v-21.835
		c0-4.789,3.918-8.707,8.707-8.707h21.835c4.789,0,8.707,3.918,8.707,8.707v21.835C378.252,271.706,374.334,275.624,369.544,275.624
		z"/>
</g>
<path style="fill:#FFFFFF;" d="M268.654,330.219h-21.835c-4.789,0-8.707-3.918-8.707-8.707v-21.835c0-4.789,3.918-8.707,8.707-8.707
	h21.835c4.789,0,8.707,3.918,8.707,8.707v21.834C277.361,326.3,273.443,330.219,268.654,330.219z"/>
<g>
	<path style="fill:#D8D8DA;" d="M319.099,330.219h-21.835c-4.789,0-8.707-3.918-8.707-8.707v-21.835
		c0-4.789,3.918-8.707,8.707-8.707h21.835c4.789,0,8.707,3.918,8.707,8.707v21.834C327.806,326.3,323.888,330.219,319.099,330.219z"
		/>
	<path style="fill:#D8D8DA;" d="M369.544,330.219h-21.835c-4.789,0-8.707-3.918-8.707-8.707v-21.835
		c0-4.789,3.918-8.707,8.707-8.707h21.835c4.789,0,8.707,3.918,8.707,8.707v21.834C378.252,326.3,374.334,330.219,369.544,330.219z"
		/>
	<path style="fill:#D8D8DA;" d="M277.361,212.324v-21.835c0-4.789-3.918-8.707-8.707-8.707h-12.654v39.25h12.654
		C273.443,221.031,277.361,217.113,277.361,212.324z"/>
	<path style="fill:#D8D8DA;" d="M277.361,266.917v-21.835c0-4.789-3.918-8.707-8.707-8.707h-12.654v39.25h12.654
		C273.443,275.624,277.361,271.706,277.361,266.917z"/>
	<path style="fill:#D8D8DA;" d="M277.361,321.511v-21.835c0-4.789-3.918-8.707-8.707-8.707h-12.654v39.25h12.654
		C273.443,330.219,277.361,326.3,277.361,321.511z"/>
</g>
<g>
</g>
<g>
</g>
<g>
</g>
<g>
</g>
<g>
</g>
<g>
</g>
<g>
</g>
<g>
</g>
<g>
</g>
<g>
</g>
<g>
</g>
<g>
</g>
<g>
</g>
<g>
</g>
<g>
</g>
</svg>
